HIERARCHY
ROOT newVegas:Hips
{
	OFFSET 0.000000 96.479958 0.000000
	CHANNELS 6 Xposition Yposition Zposition Xrotation Yrotation Zrotation
	JOINT newVegas:Pelvis
	{
		OFFSET 0.000000 0.000000 0.000000
		CHANNELS 3 Xrotation Yrotation Zrotation
		JOINT newVegas:LeftUpLeg
		{
			OFFSET 18.735201 -5.666702 -4.541200
			CHANNELS 3 Xrotation Yrotation Zrotation
			JOINT newVegas:LeftLeg
			{
				OFFSET -0.021200 -31.938179 0.493100
				CHANNELS 3 Xrotation Yrotation Zrotation
				JOINT newVegas:LeftFoot
				{
					OFFSET 0.021200 -31.938179 -4.336299
					CHANNELS 3 Xrotation Yrotation Zrotation
					JOINT newVegas:LeftToeBase
					{
						OFFSET 0.943001 -26.722000 15.023500
						CHANNELS 3 Xrotation Yrotation Zrotation
						End Site
						{
							OFFSET 0.000000 30.670183 0.000000
						}
					}
				}
				JOINT newVegas:Left_PantLeg
				{
					OFFSET 0.663870 -9.044666 -1.108900
					CHANNELS 3 Xrotation Yrotation Zrotation
					End Site
					{
						OFFSET 1.415995 20.635357 0.000000
					}
				}
			}
		}
		JOINT newVegas:RightUpLeg
		{
			OFFSET -18.735201 -5.666702 -4.541200
			CHANNELS 3 Xrotation Yrotation Zrotation
			JOINT newVegas:RightLeg
			{
				OFFSET 0.018946 -31.938133 0.493100
				CHANNELS 3 Xrotation Yrotation Zrotation
				JOINT newVegas:RightFoot
				{
					OFFSET -0.018946 -31.938126 -4.336299
					CHANNELS 3 Xrotation Yrotation Zrotation
					JOINT newVegas:RightToeBase
					{
						OFFSET -0.943001 -26.722004 15.023500
						CHANNELS 3 Xrotation Yrotation Zrotation
						End Site
						{
							OFFSET 0.000000 30.670187 0.000000
						}
					}
				}
				JOINT newVegas:Right_PantLeg
				{
					OFFSET -0.661674 -9.044716 -1.108900
					CHANNELS 3 Xrotation Yrotation Zrotation
					End Site
					{
						OFFSET -1.415958 20.635269 0.000000
					}
				}
			}
		}
	}
	JOINT newVegas:Spine
	{
		OFFSET 0.000000 10.199997 -0.299500
		CHANNELS 3 Xrotation Yrotation Zrotation
		JOINT newVegas:Spine1
		{
			OFFSET 0.000000 11.900002 -1.516600
			CHANNELS 3 Xrotation Yrotation Zrotation
			JOINT newVegas:Spine2
			{
				OFFSET 0.000000 13.600006 -2.842500
				CHANNELS 3 Xrotation Yrotation Zrotation
				JOINT newVegas:Neck
				{
					OFFSET 0.000000 9.624100 -2.890100
					CHANNELS 3 Xrotation Yrotation Zrotation
					JOINT newVegas:Head
					{
						OFFSET 0.000000 14.068802 -1.351900
						CHANNELS 3 Xrotation Yrotation Zrotation
						JOINT newVegas:Hair_Back
						{
							OFFSET 0.000000 3.231903 -17.524799
							CHANNELS 3 Xrotation Yrotation Zrotation
							End Site
							{
								OFFSET 0.000000 19.849884 0.000000
							}
						}
						JOINT newVegas:Hair_Front
						{
							OFFSET 0.000000 31.260406 4.573800
							CHANNELS 3 Xrotation Yrotation Zrotation
							JOINT newVegas:Hair_Front1
							{
								OFFSET 0.000000 2.284103 11.993300
								CHANNELS 3 Xrotation Yrotation Zrotation
								JOINT newVegas:Hair_Front2
								{
									OFFSET 0.000000 2.284103 11.993300
									CHANNELS 3 Xrotation Yrotation Zrotation
									End Site
									{
										OFFSET 0.000000 12.208862 0.000000
									}
								}
							}
						}
						JOINT newVegas:Jowel
						{
							OFFSET 0.000000 -7.458206 6.864100
							CHANNELS 3 Xrotation Yrotation Zrotation
							End Site
							{
								OFFSET 0.000000 19.849884 0.000000
							}
						}
					}
				}
				JOINT newVegas:LeftShoulder
				{
					OFFSET 15.263000 10.923401 -0.547700
					CHANNELS 3 Xrotation Yrotation Zrotation
					JOINT newVegas:LeftArm
					{
						OFFSET 25.438599 -2.830597 -13.032500
						CHANNELS 3 Xrotation Yrotation Zrotation
						JOINT newVegas:LeftForeArm
						{
							OFFSET 29.960503 0.000000 0.000000
							CHANNELS 3 Xrotation Yrotation Zrotation
							JOINT newVegas:LeftHand
							{
								OFFSET 27.849251 0.000000 0.000000
								CHANNELS 3 Xrotation Yrotation Zrotation
								JOINT newVegas:LeftHandThumb1
								{
									OFFSET 4.487587 -3.305161 6.305391
									CHANNELS 3 Xrotation Yrotation Zrotation
									JOINT newVegas:LeftHandThumb2
									{
										OFFSET 5.480453 -3.164139 3.164143
										CHANNELS 3 Xrotation Yrotation Zrotation
										JOINT newVegas:LeftHandThumb3
										{
											OFFSET 5.159721 -2.978973 2.978967
											CHANNELS 3 Xrotation Yrotation Zrotation
											End Site
											{
												OFFSET 2.494507 5.926697 1.738678
											}
										}
									}
								}
								JOINT newVegas:LeftHandIndex1
								{
									OFFSET 18.578728 -0.527832 5.208049
									CHANNELS 3 Xrotation Yrotation Zrotation
									JOINT newVegas:LeftHandIndex2
									{
										OFFSET 3.192009 0.000000 0.000000
										CHANNELS 3 Xrotation Yrotation Zrotation
										JOINT newVegas:LeftHandIndex3
										{
											OFFSET 3.835129 0.000000 0.000000
											CHANNELS 3 Xrotation Yrotation Zrotation
											End Site
											{
												OFFSET -0.034599 3.816971 0.371180
											}
										}
									}
								}
								JOINT newVegas:LeftHandMiddle1
								{
									OFFSET 18.476105 0.000000 0.000000
									CHANNELS 3 Xrotation Yrotation Zrotation
									JOINT newVegas:LeftHandMiddle2
									{
										OFFSET 3.324875 0.000000 0.000000
										CHANNELS 3 Xrotation Yrotation Zrotation
										JOINT newVegas:LeftHandMiddle3
										{
											OFFSET 4.596550 0.000000 0.000000
											CHANNELS 3 Xrotation Yrotation Zrotation
											End Site
											{
												OFFSET 0.057701 4.578827 0.399218
											}
										}
									}
								}
								JOINT newVegas:LeftHandRing1
								{
									OFFSET 17.732719 0.121887 -4.201567
									CHANNELS 3 Xrotation Yrotation Zrotation
									JOINT newVegas:LeftHandRing2
									{
										OFFSET 2.733170 0.000000 0.000000
										CHANNELS 3 Xrotation Yrotation Zrotation
										JOINT newVegas:LeftHandRing3
										{
											OFFSET 3.178268 0.000000 0.000000
											CHANNELS 3 Xrotation Yrotation Zrotation
											End Site
											{
												OFFSET 0.119102 3.170624 0.185394
											}
										}
									}
								}
								JOINT newVegas:LeftHandPinky1
								{
									OFFSET 15.989624 -0.606689 -7.535461
									CHANNELS 3 Xrotation Yrotation Zrotation
									JOINT newVegas:LeftHandPinky2
									{
										OFFSET 2.538986 0.000000 0.000000
										CHANNELS 3 Xrotation Yrotation Zrotation
										JOINT newVegas:LeftHandPinky3
										{
											OFFSET 2.593102 0.000000 0.000000
											CHANNELS 3 Xrotation Yrotation Zrotation
											End Site
											{
												OFFSET -0.150902 2.584198 0.152708
											}
										}
									}
								}
							}
							JOINT newVegas:Left_Sleeve
							{
								OFFSET 0.267448 -0.649796 0.577675
								CHANNELS 3 Xrotation Yrotation Zrotation
								End Site
								{
									OFFSET 0.000000 15.991241 0.000000
								}
							}
							JOINT newVegas:Left_CapeC
							{
								OFFSET 15.715958 -8.608795 -6.935905
								CHANNELS 3 Xrotation Yrotation Zrotation
								JOINT newVegas:Left_CapeC1
								{
									OFFSET 0.000000 -8.688499 0.000000
									CHANNELS 3 Xrotation Yrotation Zrotation
									End Site
									{
										OFFSET 0.000000 8.688499 0.000000
									}
								}
							}
						}
						JOINT newVegas:Left_CapeB
						{
							OFFSET 26.118385 -8.608795 -7.079235
							CHANNELS 3 Xrotation Yrotation Zrotation
							JOINT newVegas:Left_CapeB1
							{
								OFFSET 0.000000 -8.688499 0.000000
								CHANNELS 3 Xrotation Yrotation Zrotation
								End Site
								{
									OFFSET 0.000000 8.688499 0.000000
								}
							}
						}
						JOINT newVegas:Left_CapeA
						{
							OFFSET 5.115639 -8.608795 -10.395809
							CHANNELS 3 Xrotation Yrotation Zrotation
							JOINT newVegas:Left_CapeA1
							{
								OFFSET 0.000000 -8.688499 0.000000
								CHANNELS 3 Xrotation Yrotation Zrotation
								End Site
								{
									OFFSET 0.000000 8.688499 0.000000
								}
							}
						}
					}
				}
				JOINT newVegas:RightShoulder
				{
					OFFSET -15.263000 10.923401 -0.547700
					CHANNELS 3 Xrotation Yrotation Zrotation
					JOINT newVegas:RightArm
					{
						OFFSET -25.438599 -2.830597 -13.032500
						CHANNELS 3 Xrotation Yrotation Zrotation
						JOINT newVegas:RightForeArm
						{
							OFFSET -29.960503 0.000000 0.000000
							CHANNELS 3 Xrotation Yrotation Zrotation
							JOINT newVegas:RightHand
							{
								OFFSET -27.849251 0.000000 0.000000
								CHANNELS 3 Xrotation Yrotation Zrotation
								JOINT newVegas:RightHandThumb1
								{
									OFFSET -4.487587 -3.305161 6.305391
									CHANNELS 3 Xrotation Yrotation Zrotation
									JOINT newVegas:RightHandThumb2
									{
										OFFSET -5.480453 -3.164139 3.164143
										CHANNELS 3 Xrotation Yrotation Zrotation
										JOINT newVegas:RightHandThumb3
										{
											OFFSET -5.159721 -2.978973 2.978967
											CHANNELS 3 Xrotation Yrotation Zrotation
											End Site
											{
												OFFSET -2.494507 5.926697 1.738678
											}
										}
									}
								}
								JOINT newVegas:RightHandIndex1
								{
									OFFSET -18.578728 -0.527832 5.208049
									CHANNELS 3 Xrotation Yrotation Zrotation
									JOINT newVegas:RightHandIndex2
									{
										OFFSET -3.192009 0.000000 0.000000
										CHANNELS 3 Xrotation Yrotation Zrotation
										JOINT newVegas:RightHandIndex3
										{
											OFFSET -3.835129 0.000000 0.000000
											CHANNELS 3 Xrotation Yrotation Zrotation
											End Site
											{
												OFFSET 0.034599 3.816971 0.371180
											}
										}
									}
								}
								JOINT newVegas:RightHandMiddle1
								{
									OFFSET -18.476105 0.000000 0.000000
									CHANNELS 3 Xrotation Yrotation Zrotation
									JOINT newVegas:RightHandMiddle2
									{
										OFFSET -3.324875 0.000000 0.000000
										CHANNELS 3 Xrotation Yrotation Zrotation
										JOINT newVegas:RightHandMiddle3
										{
											OFFSET -4.596550 0.000000 0.000000
											CHANNELS 3 Xrotation Yrotation Zrotation
											End Site
											{
												OFFSET -0.057701 4.578827 0.399218
											}
										}
									}
								}
								JOINT newVegas:RightHandRing1
								{
									OFFSET -17.732719 0.121887 -4.201567
									CHANNELS 3 Xrotation Yrotation Zrotation
									JOINT newVegas:RightHandRing2
									{
										OFFSET -2.733170 0.000000 0.000000
										CHANNELS 3 Xrotation Yrotation Zrotation
										JOINT newVegas:RightHandRing3
										{
											OFFSET -3.178268 0.000000 0.000000
											CHANNELS 3 Xrotation Yrotation Zrotation
											End Site
											{
												OFFSET -0.119102 3.170624 0.185394
											}
										}
									}
								}
								JOINT newVegas:RightHandPinky1
								{
									OFFSET -15.989624 -0.606689 -7.535461
									CHANNELS 3 Xrotation Yrotation Zrotation
									JOINT newVegas:RightHandPinky2
									{
										OFFSET -2.538986 0.000000 0.000000
										CHANNELS 3 Xrotation Yrotation Zrotation
										JOINT newVegas:RightHandPinky3
										{
											OFFSET -2.593102 0.000000 0.000000
											CHANNELS 3 Xrotation Yrotation Zrotation
											End Site
											{
												OFFSET 0.150902 2.584198 0.152708
											}
										}
									}
								}
							}
							JOINT newVegas:Right_CapeC
							{
								OFFSET -15.715958 -8.608795 -6.935905
								CHANNELS 3 Xrotation Yrotation Zrotation
								JOINT newVegas:Right_CapeC1
								{
									OFFSET 0.000000 -8.688499 0.000000
									CHANNELS 3 Xrotation Yrotation Zrotation
									End Site
									{
										OFFSET 0.000000 8.688499 0.000000
									}
								}
							}
							JOINT newVegas:Right_Sleeve
							{
								OFFSET -0.267448 -0.649994 0.577675
								CHANNELS 3 Xrotation Yrotation Zrotation
								End Site
								{
									OFFSET 0.000000 15.991302 0.000000
								}
							}
						}
						JOINT newVegas:Right_CapeA
						{
							OFFSET -5.115540 -8.608795 -10.395824
							CHANNELS 3 Xrotation Yrotation Zrotation
							JOINT newVegas:Right_CapeA1
							{
								OFFSET 0.000000 -8.688499 0.000000
								CHANNELS 3 Xrotation Yrotation Zrotation
								End Site
								{
									OFFSET 0.000000 8.688499 0.000000
								}
							}
						}
						JOINT newVegas:Right_CapeB
						{
							OFFSET -26.118187 -8.608795 -7.079266
							CHANNELS 3 Xrotation Yrotation Zrotation
							JOINT newVegas:Right_CapeB1
							{
								OFFSET 0.000000 -8.688499 0.000000
								CHANNELS 3 Xrotation Yrotation Zrotation
								End Site
								{
									OFFSET 0.000000 8.688499 0.000000
								}
							}
						}
					}
				}
				JOINT newVegas:Left_Collar
				{
					OFFSET 18.625099 8.655502 8.828100
					CHANNELS 3 Xrotation Yrotation Zrotation
					JOINT newVegas:Left_Collar1
					{
						OFFSET 14.783401 10.540405 -1.259500
						CHANNELS 3 Xrotation Yrotation Zrotation
						End Site
						{
							OFFSET 0.000000 18.199875 0.000000
						}
					}
				}
				JOINT newVegas:Collar_Back
				{
					OFFSET 0.000000 15.630707 -20.132601
					CHANNELS 3 Xrotation Yrotation Zrotation
					End Site
					{
						OFFSET 0.000000 22.523010 0.000000
					}
				}
				JOINT newVegas:Left_Peck
				{
					OFFSET 17.239599 -5.132599 25.482599
					CHANNELS 3 Xrotation Yrotation Zrotation
					End Site
					{
						OFFSET 0.000000 22.523010 0.000000
					}
				}
				JOINT newVegas:Right_Peck
				{
					OFFSET -17.239599 -5.132202 25.482599
					CHANNELS 3 Xrotation Yrotation Zrotation
					End Site
					{
						OFFSET 0.000000 22.523010 0.000000
					}
				}
				JOINT newVegas:Right_Collar
				{
					OFFSET -18.625099 8.655792 8.828100
					CHANNELS 3 Xrotation Yrotation Zrotation
					JOINT newVegas:Right_Collar1
					{
						OFFSET -14.783401 10.539993 -1.259500
						CHANNELS 3 Xrotation Yrotation Zrotation
						End Site
						{
							OFFSET 0.000000 18.199631 0.000000
						}
					}
				}
			}
		}
		JOINT newVegas:Belly
		{
			OFFSET 0.000000 -6.540398 9.014299
			CHANNELS 3 Xrotation Yrotation Zrotation
			End Site
			{
				OFFSET 0.000000 11.566666 0.000000
			}
		}
	}
	JOINT newVegas:ElvisFacialAnim_Joint
	{
		OFFSET 1.000000 -95.330101 -8.825800
		CHANNELS 3 Xrotation Yrotation Zrotation
		End Site
		{
			OFFSET 0.000000 35.315800 0.000000
		}
	}
}
MOTION
Frames: 4
Frame Time: 0.033333
-0.689835 56.835136 109.089081 -25.542512 -1.145467 2.885450 0.000000 -0.000000 0.000000 -96.856522 6.167271 18.920961 101.477842 4.032927 -6.933127 4.901660 -0.271448 12.428272 0.000000 0.000000 -0.000000 -0.000000 0.000002 0.000001 -101.614247 -2.367466 -12.712590 98.841150 7.816727 4.235072 18.390901 -0.208534 -14.776414 -0.000000 0.000000 -0.000000 0.000002 -0.000000 -0.000001 5.195032 -1.936192 -2.294236 10.744466 -2.419003 -1.360664 10.600547 -2.562810 -1.392902 0.296279 1.701972 0.175678 0.296277 1.701977 0.175678 0.000000 -0.000000 0.000000 0.296278 1.701974 0.175678 0.296279 1.701974 0.175678 -0.000000 0.000000 -0.000000 0.000000 -0.000000 0.000000 3.429729 4.513930 -23.599347 0.286148 -29.518572 -24.074168 0.000004 -33.781460 0.000009 18.317883 11.246350 -16.471083 -7.619704 -6.202112 1.410616 7.676508 25.390578 2.442209 0.000003 0.000000 -0.000004 0.347512 -1.413849 3.571161 0.486947 2.340300 -23.503941 -0.000001 -0.000001 0.000001 0.076905 2.749305 -3.799149 0.444949 2.241368 -22.453473 -0.000002 -0.000001 0.000001 0.404007 4.978838 -8.853865 0.461246 2.280377 -22.866550 0.000005 -0.000001 0.000000 0.766981 8.090391 -10.529321 0.500418 2.371030 -23.831942 -0.000001 -0.000003 -0.000000 0.000001 -0.000001 0.000001 0.000001 -0.000001 0.000001 0.000000 -0.000001 0.000001 -0.000001 0.000002 0.000004 -0.000001 0.000002 0.000002 -0.000001 0.000002 0.000004 -0.000002 0.000003 0.000003 0.150103 5.672614 17.085353 10.282238 35.780759 23.450978 -0.000002 30.156518 0.000002 5.602263 10.585081 -2.945407 -9.443770 9.936892 1.953987 8.129786 -29.609191 -3.215040 0.000002 -0.000004 -0.000001 -0.213600 0.216167 5.625679 0.201108 -1.355142 16.881265 0.000000 -0.000001 0.000003 0.127304 -3.137937 10.570280 0.511891 -2.124561 27.090060 -0.000000 0.000001 0.000000 0.777574 -5.295676 17.593596 0.493499 -2.088240 26.589839 0.000000 -0.000001 -0.000001 2.079479 -8.726720 19.637883 0.232837 -1.455625 18.175702 0.000003 -0.000002 -0.000001 -0.000000 0.000001 0.000001 0.000001 -0.000002 0.000002 -0.000000 0.000000 -0.000000 0.000001 0.000001 0.000003 0.000001 0.000002 0.000002 0.000001 0.000001 0.000003 0.000001 0.000002 0.000003 0.000000 -0.000001 -0.000000 0.000000 -0.000001 -0.000000 0.000000 -0.000001 -0.000000 0.000000 -0.000001 -0.000000 0.000000 -0.000001 -0.000000 0.000000 -0.000001 -0.000000 0.000000 -0.000001 -0.000000 -0.000001 -0.000000 -0.000000 0.000000 -0.000000 0.000000 
-0.677443 56.825699 112.981064 -25.541168 -1.171977 2.856812 -0.000000 0.000000 -0.000000 -96.653030 6.365360 18.772792 100.318991 4.244450 -6.943370 5.778692 -0.179217 12.600194 -0.000001 -0.000001 -0.000001 -0.000000 -0.000001 0.000001 -101.669579 -2.363053 -12.710280 99.022792 7.830075 4.235538 18.269545 -0.184642 -14.784028 0.000000 -0.000000 0.000000 -0.000001 0.000001 -0.000003 5.188268 -1.908192 -2.268148 10.730887 -2.445292 -1.358175 10.595603 -2.576771 -1.388511 0.375786 1.701751 0.177570 0.375790 1.701754 0.177570 -0.000000 -0.000000 0.000000 0.375850 1.701748 0.177568 0.375774 1.701757 0.177570 0.000000 -0.000000 -0.000000 -0.000000 -0.000000 -0.000000 3.466483 5.235543 -22.938729 3.361261 -25.946767 -23.704525 -0.000016 -39.385401 -0.000019 16.351707 12.147190 -15.689117 -6.173426 -5.979486 -0.700311 7.829427 26.575349 2.527960 0.000003 0.000001 -0.000003 0.145107 -0.382230 0.773759 0.519362 2.413452 -24.285776 -0.000003 -0.000001 0.000001 0.095891 2.971145 -5.972612 0.458852 2.274707 -22.806418 -0.000002 -0.000001 -0.000000 0.399424 4.733657 -10.230456 0.476977 2.317300 -23.258799 0.000002 -0.000002 0.000001 0.704782 7.145079 -11.428321 0.506285 2.384259 -23.973214 0.000002 -0.000003 -0.000000 -0.000001 0.000001 -0.000000 -0.000001 0.000001 -0.000000 -0.000002 0.000001 0.000000 -0.000000 -0.000002 -0.000005 -0.000000 -0.000000 -0.000005 -0.000000 -0.000002 -0.000005 -0.000001 -0.000001 -0.000006 0.221534 4.804735 16.737920 13.867602 34.150533 22.524357 -0.000001 34.100051 0.000014 3.311537 9.932571 -5.207553 -7.466741 10.060805 4.478992 8.258724 -30.742972 -3.281889 -0.000003 -0.000001 -0.000002 -0.270494 -0.606130 8.994974 0.223352 -1.426369 17.798148 -0.000001 0.000002 -0.000001 0.183695 -3.398134 13.841796 0.506867 -2.114727 26.954524 0.000003 0.000000 -0.000001 0.849579 -5.234595 20.903584 0.539921 -2.178452 27.836924 0.000001 0.000002 0.000000 2.048568 -7.992441 22.559208 0.307191 -1.664997 20.905548 -0.000002 0.000003 -0.000000 0.000001 0.000002 -0.000000 -0.000001 -0.000001 0.000000 0.000001 0.000002 -0.000001 -0.000002 0.000001 0.000002 -0.000002 0.000002 0.000003 -0.000002 0.000001 0.000002 -0.000002 0.000002 0.000005 0.000000 -0.000001 -0.000000 0.000000 -0.000001 -0.000000 0.000000 -0.000001 -0.000000 0.000000 -0.000001 -0.000000 0.000000 -0.000001 -0.000000 0.000000 -0.000001 -0.000000 0.000000 -0.000001 -0.000000 -0.000000 0.000000 -0.000000 -0.000000 0.000000 -0.000000 
-0.677648 56.825943 116.589821 -25.541064 -1.174178 2.854837 0.000000 0.000000 0.000000 -96.641316 6.384821 18.764075 100.294949 4.299393 -6.943278 5.777888 -0.212750 12.635713 0.000001 0.000000 -0.000000 -0.000001 -0.000000 0.000002 -101.685657 -2.352387 -12.713026 99.100560 7.828262 4.235279 18.213447 -0.179232 -14.787465 -0.000000 -0.000000 -0.000000 0.000000 -0.000001 0.000000 5.180762 -1.908772 -2.266447 10.714197 -2.472677 -1.355626 10.592287 -2.591970 -1.383792 0.454875 1.701604 0.179464 0.454880 1.701607 0.179464 0.000000 -0.000000 0.000000 0.454947 1.701606 0.179462 0.454865 1.701604 0.179465 0.000000 0.000000 0.000000 0.000000 -0.000000 0.000000 3.507503 6.010799 -22.199880 6.221731 -22.503487 -23.970211 0.000002 -44.756525 -0.000004 13.156730 13.441788 -13.931875 -4.795544 -5.820186 -2.696420 7.973667 27.695440 2.606556 -0.000001 -0.000001 -0.000001 0.034982 0.601282 -1.868757 0.550933 2.482138 -25.024958 0.000000 -0.000002 0.000002 0.121577 3.180007 -8.027623 0.472183 2.306122 -23.140046 0.000001 0.000001 -0.000001 0.381571 4.503588 -11.530833 0.492105 2.352109 -23.629588 -0.000003 0.000001 0.000003 0.619193 6.254400 -12.275849 0.511856 2.396737 -24.106741 -0.000000 0.000000 -0.000001 0.000000 -0.000002 0.000001 0.000000 -0.000002 0.000001 -0.000001 -0.000001 0.000001 -0.000003 0.000001 0.000001 -0.000003 0.000000 0.000000 -0.000003 0.000001 0.000001 -0.000004 0.000002 0.000000 0.280985 3.929911 16.395070 17.440468 32.929186 21.681723 -0.000004 37.731293 -0.000008 0.951873 9.282989 -7.630745 -5.494453 10.289851 6.968183 8.386734 -31.868829 -3.346116 0.000002 -0.000000 -0.000001 -0.248201 -1.418698 12.342224 0.246574 -1.496782 18.708535 -0.000002 -0.000001 0.000003 0.254325 -3.652871 17.091160 0.501919 -2.104915 26.819971 0.000003 -0.000001 0.000002 0.901543 -5.176523 24.188601 0.587966 -2.266997 29.075244 0.000001 -0.000001 -0.000001 1.938426 -7.284744 25.452965 0.390797 -1.869153 23.616538 0.000000 -0.000003 -0.000003 0.000003 0.000001 0.000001 0.000003 -0.000002 0.000000 0.000003 0.000000 -0.000000 -0.000002 0.000000 -0.000002 -0.000001 0.000000 -0.000003 -0.000002 0.000000 -0.000002 -0.000001 -0.000000 -0.000001 0.000000 0.000000 0.000000 0.000000 0.000000 0.000000 0.000000 0.000000 0.000000 0.000000 0.000000 0.000000 0.000000 0.000000 0.000000 0.000000 0.000000 0.000000 0.000000 0.000000 0.000000 -0.000002 0.000000 -0.000000 0.000000 0.000000 0.000000 
-0.675070 56.824295 119.943375 -25.540811 -1.179310 2.849823 0.000002 -0.000000 0.000000 -96.631775 6.371324 18.769966 100.205494 4.320973 -6.945251 5.884961 -0.235885 12.603466 -0.000001 -0.000001 0.000000 -0.000001 0.000001 -0.000001 -101.708272 -2.341579 -12.718677 99.188335 7.830094 4.235301 18.152700 -0.173124 -14.788847 -0.000001 0.000000 -0.000000 0.000003 0.000000 -0.000000 5.173168 -1.906812 -2.261979 10.693485 -2.501142 -1.353003 10.590116 -2.608912 -1.378476 0.533623 1.701423 0.181351 0.533623 1.701424 0.181352 0.000000 0.000000 0.000000 0.533628 1.701424 0.181351 0.533693 1.701421 0.181350 -0.000000 0.000000 -0.000000 0.000000 0.000000 -0.000000 3.562353 6.850117 -21.403692 8.876592 -19.321907 -24.660898 0.000004 -49.366978 0.000013 10.010575 14.076679 -11.739161 -3.545237 -5.719398 -4.496580 8.103553 28.705834 2.675411 0.000001 -0.000001 0.000001 0.004843 1.490714 -4.252673 0.580166 2.543768 -25.691692 -0.000001 -0.000000 0.000001 0.151167 3.367492 -9.881580 0.484377 2.334411 -23.440950 0.000002 -0.000001 0.000000 0.354267 4.297939 -12.703050 0.505917 2.383411 -23.964040 0.000003 -0.000002 0.000000 0.519778 5.453948 -13.038902 0.516899 2.407986 -24.227210 0.000000 -0.000003 -0.000001 0.000000 0.000003 -0.000004 0.000000 0.000003 -0.000004 -0.000001 0.000003 -0.000004 -0.000002 0.000000 0.000003 -0.000001 0.000000 0.000002 -0.000002 0.000000 0.000003 -0.000002 0.000001 0.000003 0.326777 3.058586 16.052727 20.908630 31.684008 21.042790 0.000001 41.391438 0.000001 -1.258498 8.737904 -10.101548 -3.611384 10.605027 9.319227 8.508792 -32.941166 -3.405238 0.000002 -0.000000 -0.000003 -0.154563 -2.183241 15.533590 0.269719 -1.563448 19.575619 -0.000002 0.000001 -0.000004 0.334949 -3.891402 20.186974 0.497218 -2.095647 26.691816 0.000002 0.000001 -0.000002 0.933520 -5.125464 27.315834 0.635471 -2.350358 30.254763 0.000001 -0.000003 -0.000002 1.762194 -6.636087 28.203962 0.479333 -2.059727 26.198994 0.000000 0.000003 -0.000000 0.000000 -0.000001 0.000002 -0.000002 0.000000 0.000003 0.000000 -0.000001 0.000001 -0.000002 0.000000 0.000001 -0.000002 0.000000 0.000001 -0.000002 0.000000 0.000001 -0.000001 0.000000 0.000003 0.000000 -0.000000 -0.000000 0.000000 -0.000000 -0.000000 0.000000 -0.000000 -0.000000 0.000000 -0.000000 -0.000000 0.000000 -0.000000 -0.000000 0.000000 -0.000000 -0.000000 0.000000 -0.000000 -0.000000 0.000000 0.000000 0.000000 0.000002 -0.000000 0.000000 
